<svg width="32" height="32" viewBox="0 0 32 32" fill="none" xmlns="http://www.w3.org/2000/svg">
  <rect width="32" height="32" rx="6" fill="#141414"/>
  <line x1="16" y1="13.2" x2="16" y2="8.2" stroke="#F3EDE3" stroke-width="1.6" stroke-linecap="round"/>
  <line x1="18.8" y1="16" x2="23.8" y2="16" stroke="#F3EDE3" stroke-width="1.6" stroke-linecap="round"/>
  <line x1="16" y1="18.8" x2="16" y2="23.8" stroke="#F3EDE3" stroke-width="1.6" stroke-linecap="round"/>
  <line x1="13.2" y1="16" x2="8.2" y2="16" stroke="#F3EDE3" stroke-width="1.6" stroke-linecap="round"/>
  <line x1="18.0" y1="14.0" x2="22.0" y2="10.0" stroke="#F3EDE3" stroke-width="1.4" stroke-linecap="round"/>
  <line x1="18.0" y1="18.0" x2="22.0" y2="22.0" stroke="#F3EDE3" stroke-width="1.4" stroke-linecap="round"/>
  <line x1="14.0" y1="18.0" x2="10.0" y2="22.0" stroke="#F3EDE3" stroke-width="1.4" stroke-linecap="round"/>
  <line x1="14.0" y1="14.0" x2="10.0" y2="10.0" stroke="#F3EDE3" stroke-width="1.4" stroke-linecap="round"/>
  <circle cx="16" cy="16" r="2.8" stroke="#F3EDE3" stroke-width="1.8" fill="none"/>
  <circle cx="16" cy="6" r="2.2" stroke="#F3EDE3" stroke-width="1.6" fill="none"/>
  <circle cx="26" cy="16" r="2.2" stroke="#F3EDE3" stroke-width="1.6" fill="none"/>
  <circle cx="16" cy="26" r="2.2" stroke="#F3EDE3" stroke-width="1.6" fill="none"/>
  <circle cx="6" cy="16" r="2.2" stroke="#F3EDE3" stroke-width="1.6" fill="none"/>
  <circle cx="23.1" cy="8.9" r="1.5" stroke="#F3EDE3" stroke-width="1.4" fill="none"/>
  <circle cx="23.1" cy="23.1" r="1.5" stroke="#F3EDE3" stroke-width="1.4" fill="none"/>
  <circle cx="8.9" cy="23.1" r="1.5" stroke="#F3EDE3" stroke-width="1.4" fill="none"/>
  <circle cx="8.9" cy="8.9" r="1.5" stroke="#F3EDE3" stroke-width="1.4" fill="none"/>
</svg>
