<svg width="32" height="32" viewBox="0 0 32 32" fill="none" xmlns="http://www.w3.org/2000/svg">
  <rect width="32" height="32" rx="6" fill="#141414"/>
  <!-- Hub -->
  <circle cx="16" cy="16" r="3.5" fill="#1FA87A"/>
  <!-- 8 outer nodes + spokes in mint -->
  <circle cx="16" cy="4"  r="2.2" fill="#1FA87A"/>
  <line x1="16" y1="6.2" x2="16" y2="12.5" stroke="#1FA87A" stroke-width="1.4"/>
  <circle cx="24.5" cy="7.5" r="2.2" fill="#1FA87A"/>
  <line x1="23.0" y1="8.9" x2="18.5" y2="13.0" stroke="#1FA87A" stroke-width="1.4"/>
  <circle cx="28" cy="16"  r="2.2" fill="#1FA87A"/>
  <line x1="25.8" y1="16" x2="19.5" y2="16" stroke="#1FA87A" stroke-width="1.4"/>
  <circle cx="24.5" cy="24.5" r="2.2" fill="#1FA87A"/>
  <line x1="23.0" y1="23.1" x2="18.5" y2="19.0" stroke="#1FA87A" stroke-width="1.4"/>
  <circle cx="16" cy="28"  r="2.2" fill="#1FA87A"/>
  <line x1="16" y1="25.8" x2="16" y2="19.5" stroke="#1FA87A" stroke-width="1.4"/>
  <circle cx="7.5" cy="24.5" r="2.2" fill="#1FA87A"/>
  <line x1="9.0" y1="23.1" x2="13.5" y2="19.0" stroke="#1FA87A" stroke-width="1.4"/>
  <circle cx="4" cy="16"   r="2.2" fill="#1FA87A"/>
  <line x1="6.2" y1="16"  x2="12.5" y2="16"  stroke="#1FA87A" stroke-width="1.4"/>
  <circle cx="7.5" cy="7.5" r="2.2" fill="#1FA87A"/>
  <line x1="9.0" y1="8.9"  x2="13.5" y2="13.0" stroke="#1FA87A" stroke-width="1.4"/>
</svg>
