<svg width="140" height="24" viewBox="0 0 140 24" fill="none" xmlns="http://www.w3.org/2000/svg">
  <!-- Hub node -->
  <circle cx="12" cy="12" r="3" fill="#141414"/>
  <!-- Outer nodes + spokes -->
  <circle cx="12" cy="2"  r="2" fill="#141414"/>
  <line x1="12" y1="4"  x2="12" y2="9"  stroke="#141414" stroke-width="1.5"/>
  <circle cx="21" cy="5" r="2" fill="#141414"/>
  <line x1="19.5" y1="6.5" x2="14.1" y2="9.9" stroke="#141414" stroke-width="1.5"/>
  <circle cx="24" cy="12" r="2" fill="#141414"/>
  <line x1="22" y1="12" x2="15" y2="12" stroke="#141414" stroke-width="1.5"/>
  <circle cx="21" cy="19" r="2" fill="#141414"/>
  <line x1="19.5" y1="17.5" x2="14.1" y2="14.1" stroke="#141414" stroke-width="1.5"/>
  <circle cx="12" cy="22" r="2" fill="#141414"/>
  <line x1="12" y1="20" x2="12" y2="15" stroke="#141414" stroke-width="1.5"/>
  <circle cx="3" cy="19"  r="2" fill="#141414"/>
  <line x1="4.5" y1="17.5" x2="9.9" y2="14.1" stroke="#141414" stroke-width="1.5"/>
  <circle cx="0" cy="12"  r="2" fill="#141414"/>
  <line x1="2" y1="12"  x2="9" y2="12"  stroke="#141414" stroke-width="1.5"/>
  <circle cx="3" cy="5"  r="2" fill="#141414"/>
  <line x1="4.5" y1="6.5" x2="9.9" y2="9.9" stroke="#141414" stroke-width="1.5"/>
  <!-- wordmark -->
  <text x="32" y="17" font-family="'IBM Plex Mono', monospace" font-size="14" font-weight="500" letter-spacing="-0.02em" fill="#141414">thrindex</text>
</svg>
